# xmcd
# 
# Track frame offsets:
#     150
#     14902
#     29436
#     43619
#     57097
#     72493
#     89831
#     107086
#     121530
#     137712
#     154274
#     166811
#     179721
#     194097
#     213166
#     228350
#     244863
#     261684
#     278180
#     296145
# 
# Disc length: 4217
# 
# Revision: 6
# Processed by: cddbd v1.5.2PL0 Copyright (c) Steve Scherf et al.
# Submitted via: fre:ac v1.0.31
# 
DISCID=3d107714
DTITLE=Various Artist - Bääärenstark!!! Hits 2004 - CD 2
DYEAR=2004
DGENRE=Schlager
TTITLE0=Wolfgang Petry - Typisch Frau, Typisch Mann (Heia)
TTITLE1=Hansi Hinterseer - Hände Zum Himmel
TTITLE2=Höhner - Viva Colonia (Da Simmer Dabei, Dat Is Primma!)
TTITLE3=Brunner and Brunner - Prosecco Für Alle
TTITLE4=Volker Rosin Feat. Chris Rabatz - Känguru Dance
TTITLE5=Marianne Rosenberg - Hitmix
TTITLE6=DJ Ötzi - Tanz Den Rehakles
TTITLE7=De Boore - Rut Sin De Ruse (Toutes Les Femmes Sont Belles)
TTITLE8=Gaby Albrecht - Sehnsuchtsmelodie
TTITLE9=Roger Whittaker - Du Warst Mein Schönster Traum
TTITLE10=Die Schäfer - Du Greifst Nach Meinem Herz
TTITLE11=Vikinger - Wenn Du Fühlst Was Ich Fühl
TTITLE12=Frans Bauer - Luftballon
TTITLE13=Stefan Gwildis - Sie Ist So Süß (Wenn Sie Da Liegt Und Schläft)
TTITLE14=Stafan Moll - Du Warst Mein Schönster Sommer
TTITLE15=Alexander M.Helmer - Die Sonne Geht Immer Wieder Auf
TTITLE16=Dana Winner - Märchenland Gefühl
TTITLE17=Reter Rubin - Es Tut Noch Weh Dich Zu Seh'n
TTITLE18=Andreas Martin - Alle Blonden Mädchen
TTITLE19=Udo Jürgens - Schöne Grüße Aus Der Hölle
EXTD=
EXTT0=
EXTT1=
EXTT2=
EXTT3=
EXTT4=
EXTT5=
EXTT6=
EXTT7=
EXTT8=
EXTT9=
EXTT10=
EXTT11=
EXTT12=
EXTT13=
EXTT14=
EXTT15=
EXTT16=
EXTT17=
EXTT18=
EXTT19=
PLAYORDER=
